<svg width="351" height="351" xmlns="http://www.w3.org/2000/svg" xmlns:xlink="http://www.w3.org/1999/xlink" overflow="hidden"><defs><clipPath id="clip0"><rect x="437" y="236" width="349" height="349"/></clipPath><clipPath id="clip1"><rect x="437" y="236" width="349" height="349"/></clipPath><clipPath id="clip2"><rect x="437" y="236" width="349" height="349"/></clipPath></defs><g transform="translate(-436 -235)"><g clip-path="url(#clip0)"><g clip-path="url(#clip1)"><g clip-path="url(#clip2)"><path d="M720.562 377.781C720.562 409.069 710.406 437.97 693.297 461.419L779.593 547.782C788.113 556.303 788.113 570.14 779.593 578.661 771.072 587.181 757.235 587.181 748.714 578.661L662.419 492.297C638.97 509.474 610.069 519.562 578.781 519.562 500.461 519.562 437 456.102 437 377.781 437 299.461 500.461 236 578.781 236 657.102 236 720.562 299.461 720.562 377.781ZM578.781 475.938C632.991 475.938 676.938 431.991 676.938 377.781 676.938 323.571 632.991 279.625 578.781 279.625 524.571 279.625 480.625 323.571 480.625 377.781 480.625 431.991 524.571 475.938 578.781 475.938Z"/></g></g></g><g><g><g><path d="M0 19.5833C0 13.0964 5.26302 7.83333 11.75 7.83333L35.25 7.83333C41.737 7.83333 47 13.0964 47 19.5833L47 23.5 94 23.5 94 19.5833C94 13.0964 99.263 7.83333 105.75 7.83333L129.25 7.83333C135.737 7.83333 141 13.0964 141 19.5833L141 43.0833C141 49.5703 135.737 54.8333 129.25 54.8333L105.75 54.8333C99.263 54.8333 94 49.5703 94 43.0833L94 39.1667 47 39.1667 47 43.0833C47 43.4995 46.9755 43.9156 46.9266 44.3073L66.5833 70.5 90.0833 70.5C96.5703 70.5 101.833 75.763 101.833 82.25L101.833 105.75C101.833 112.237 96.5703 117.5 90.0833 117.5L66.5833 117.5C60.0964 117.5 54.8333 112.237 54.8333 105.75L54.8333 82.25C54.8333 81.8339 54.8578 81.4177 54.9068 81.026L35.25 54.8333 11.75 54.8333C5.26302 54.8333 0 49.5703 0 43.0833L0 19.5833Z" transform="matrix(1 0 0 1.00532 508 322)"/></g></g></g></g></svg>