<svg width="22" height="20" xmlns="http://www.w3.org/2000/svg" xmlns:xlink="http://www.w3.org/1999/xlink" overflow="hidden"><defs><clipPath id="clip0"><rect x="425" y="40" width="4" height="8"/></clipPath><clipPath id="clip1"><rect x="425" y="40" width="4" height="8"/></clipPath><clipPath id="clip2"><rect x="425" y="40" width="4" height="8"/></clipPath><clipPath id="clip3"><rect x="425" y="52" width="4" height="8"/></clipPath><clipPath id="clip4"><rect x="425" y="52" width="4" height="8"/></clipPath><clipPath id="clip5"><rect x="425" y="52" width="4" height="8"/></clipPath></defs><g transform="translate(-424 -40)"><g><g><g><g><g><g><path d="M442.971 48.5085C442.971 49.9348 442.509 51.2522 441.729 52.3211L445.662 56.2579C446.051 56.6463 446.051 57.277 445.662 57.6655 445.274 58.0538 444.643 58.0538 444.255 57.6655L440.321 53.7286C439.252 54.5116 437.935 54.9715 436.509 54.9715 432.938 54.9715 430.046 52.0787 430.046 48.5085 430.046 44.9384 432.938 42.0456 436.509 42.0456 440.079 42.0456 442.971 44.9384 442.971 48.5085ZM436.509 52.9829C438.98 52.9829 440.983 50.9796 440.983 48.5085 440.983 46.0374 438.98 44.0342 436.509 44.0342 434.037 44.0342 432.034 46.0374 432.034 48.5085 432.034 50.9796 434.037 52.9829 436.509 52.9829Z"/></g></g></g><path d="M434.072 46.8357 434.072 47.4359C434.072 47.601 433.937 47.736 433.772 47.736L433.472 47.736 433.472 48.9364 433.772 48.9364C433.937 48.9364 434.072 49.0714 434.072 49.2365L434.072 49.8367C434.072 50.3318 434.477 50.737 434.972 50.737L435.873 50.737 435.873 50.1367 434.972 50.1367C434.807 50.1367 434.672 50.0017 434.672 49.8367L434.672 49.2365C434.672 48.8464 434.42 48.5102 434.072 48.3872L434.072 48.2852C434.42 48.1621 434.672 47.826 434.672 47.4359L434.672 46.8357C434.672 46.6706 434.807 46.5356 434.972 46.5356L435.873 46.5356 435.873 45.9354 434.972 45.9354C434.477 45.9354 434.072 46.3406 434.072 46.8357Z"/><path d="M439.174 47.736C439.009 47.736 438.874 47.601 438.874 47.4359L438.874 46.8357C438.874 46.3406 438.469 45.9354 437.973 45.9354L437.073 45.9354 437.073 46.5356 437.973 46.5356C438.138 46.5356 438.273 46.6706 438.273 46.8357L438.273 47.4359C438.273 47.826 438.526 48.1621 438.874 48.2852L438.874 48.3872C438.526 48.5102 438.273 48.8433 438.273 49.2365L438.273 49.8367C438.273 50.0017 438.138 50.1367 437.973 50.1367L437.073 50.1367 437.073 50.737 437.973 50.737C438.469 50.737 438.874 50.3318 438.874 49.8367L438.874 49.2365C438.874 49.0714 439.009 48.9364 439.174 48.9364L439.474 48.9364 439.474 47.736 439.174 47.736Z"/></g></g></g><g clip-path="url(#clip0)"><g clip-path="url(#clip1)"><g clip-path="url(#clip2)"><path d="M2.2825 1.7175C2.12625 1.56125 1.8725 1.56125 1.71625 1.7175L0.11625 3.3175C0.00125 3.4325-0.0325 3.60375 0.03 3.75375 0.0925 3.90375 0.2375 4.00125 0.4 4.00125L3.6 4.00125C3.76125 4.00125 3.9075 3.90375 3.97 3.75375 4.0325 3.60375 3.9975 3.4325 3.88375 3.3175L2.28375 1.7175Z" transform="matrix(1 0 0 1.25 425 40)"/></g></g></g><g clip-path="url(#clip3)"><g clip-path="url(#clip4)"><g clip-path="url(#clip5)"><path d="M1.7175 4.6825C1.87375 4.83875 2.1275 4.83875 2.28375 4.6825L3.88375 3.0825C3.99875 2.9675 4.0325 2.79625 3.97 2.64625 3.9075 2.49625 3.7625 2.39875 3.6 2.39875L0.4 2.4C0.23875 2.4 0.0925 2.4975 0.03 2.6475-0.0325 2.7975 0.0025 2.96875 0.11625 3.08375L1.71625 4.68375Z" transform="matrix(1 0 0 1.25 425 52)"/></g></g></g></g></svg>