<svg width="351" height="351" xmlns="http://www.w3.org/2000/svg" xmlns:xlink="http://www.w3.org/1999/xlink" overflow="hidden"><defs><clipPath id="clip0"><rect x="437" y="236" width="349" height="349"/></clipPath><clipPath id="clip1"><rect x="437" y="236" width="349" height="349"/></clipPath><clipPath id="clip2"><rect x="437" y="236" width="349" height="349"/></clipPath></defs><g transform="translate(-436 -235)"><g clip-path="url(#clip0)"><g clip-path="url(#clip1)"><g clip-path="url(#clip2)"><path d="M720.562 377.781C720.562 409.069 710.406 437.97 693.297 461.419L779.593 547.782C788.113 556.303 788.113 570.14 779.593 578.661 771.072 587.181 757.235 587.181 748.714 578.661L662.419 492.297C638.97 509.474 610.069 519.562 578.781 519.562 500.461 519.562 437 456.102 437 377.781 437 299.461 500.461 236 578.781 236 657.102 236 720.562 299.461 720.562 377.781ZM578.781 475.938C632.991 475.938 676.938 431.991 676.938 377.781 676.938 323.571 632.991 279.625 578.781 279.625 524.571 279.625 480.625 323.571 480.625 377.781 480.625 431.991 524.571 475.938 578.781 475.938Z"/></g></g></g><g><g><g><path d="M525.333 341.083 525.333 354.25C525.333 357.871 522.371 360.833 518.75 360.833L512.167 360.833 512.167 387.167 518.75 387.167C522.371 387.167 525.333 390.129 525.333 393.75L525.333 406.917C525.333 417.779 534.221 426.667 545.083 426.667L564.833 426.667 564.833 413.5 545.083 413.5C541.463 413.5 538.5 410.538 538.5 406.917L538.5 393.75C538.5 385.192 532.97 377.818 525.333 375.119L525.333 372.881C532.97 370.182 538.5 362.808 538.5 354.25L538.5 341.083C538.5 337.462 541.463 334.5 545.083 334.5L564.833 334.5 564.833 321.333 545.083 321.333C534.221 321.333 525.333 330.221 525.333 341.083Z"/><path d="M637.25 360.833C633.629 360.833 630.667 357.871 630.667 354.25L630.667 341.083C630.667 330.221 621.779 321.333 610.917 321.333L591.167 321.333 591.167 334.5 610.917 334.5C614.537 334.5 617.5 337.462 617.5 341.083L617.5 354.25C617.5 362.808 623.03 370.182 630.667 372.881L630.667 375.119C623.03 377.818 617.5 385.126 617.5 393.75L617.5 406.917C617.5 410.538 614.537 413.5 610.917 413.5L591.167 413.5 591.167 426.667 610.917 426.667C621.779 426.667 630.667 417.779 630.667 406.917L630.667 393.75C630.667 390.129 633.629 387.167 637.25 387.167L643.833 387.167 643.833 360.833 637.25 360.833Z"/></g></g></g></g></svg>