<svg width="22" height="20" xmlns="http://www.w3.org/2000/svg" xmlns:xlink="http://www.w3.org/1999/xlink" overflow="hidden"><defs><clipPath id="clip0"><rect x="425" y="40" width="4" height="8"/></clipPath><clipPath id="clip1"><rect x="425" y="40" width="4" height="8"/></clipPath><clipPath id="clip2"><rect x="425" y="40" width="4" height="8"/></clipPath><clipPath id="clip3"><rect x="425" y="52" width="4" height="8"/></clipPath><clipPath id="clip4"><rect x="425" y="52" width="4" height="8"/></clipPath><clipPath id="clip5"><rect x="425" y="52" width="4" height="8"/></clipPath></defs><g transform="translate(-424 -40)"><g><g><g><g><g><g><path d="M442.971 48.5085C442.971 49.9348 442.509 51.2522 441.729 52.3211L445.662 56.2579C446.051 56.6463 446.051 57.277 445.662 57.6655 445.274 58.0538 444.643 58.0538 444.255 57.6655L440.321 53.7286C439.252 54.5116 437.935 54.9715 436.509 54.9715 432.938 54.9715 430.046 52.0787 430.046 48.5085 430.046 44.9384 432.938 42.0456 436.509 42.0456 440.079 42.0456 442.971 44.9384 442.971 48.5085ZM436.509 52.9829C438.98 52.9829 440.983 50.9796 440.983 48.5085 440.983 46.0374 438.98 44.0342 436.509 44.0342 434.037 44.0342 432.034 46.0374 432.034 48.5085 432.034 50.9796 434.037 52.9829 436.509 52.9829Z"/></g></g></g><path d="M0 0.892686C0 0.596987 0.23991 0.357075 0.535613 0.357075L1.60684 0.357075C1.90254 0.357075 2.14245 0.596987 2.14245 0.892686L2.14245 1.07123 4.2849 1.07123 4.2849 0.892686C4.2849 0.596987 4.52481 0.357075 4.82051 0.357075L5.89174 0.357075C6.18744 0.357075 6.42735 0.596987 6.42735 0.892686L6.42735 1.96391C6.42735 2.25961 6.18744 2.49952 5.89174 2.49952L4.82051 2.49952C4.52481 2.49952 4.2849 2.25961 4.2849 1.96391L4.2849 1.78538 2.14245 1.78538 2.14245 1.96391C2.14245 1.98288 2.14133 2.00185 2.1391 2.01971L3.03514 3.21368 4.10636 3.21368C4.40206 3.21368 4.64196 3.45358 4.64196 3.74929L4.64196 4.82051C4.64196 5.11622 4.40206 5.35613 4.10636 5.35613L3.03514 5.35613C2.73944 5.35613 2.49952 5.11622 2.49952 4.82051L2.49952 3.74929C2.49952 3.73032 2.50064 3.71135 2.50287 3.69349L1.60684 2.49952 0.535613 2.49952C0.23991 2.49952 0 2.25961 0 1.96391L0 0.892686Z" transform="matrix(1 0 0 1.00532 433.282 45.9658)"/></g></g></g><g clip-path="url(#clip0)"><g clip-path="url(#clip1)"><g clip-path="url(#clip2)"><path d="M2.2825 1.7175C2.12625 1.56125 1.8725 1.56125 1.71625 1.7175L0.11625 3.3175C0.00125 3.4325-0.0325 3.60375 0.03 3.75375 0.0925 3.90375 0.2375 4.00125 0.4 4.00125L3.6 4.00125C3.76125 4.00125 3.9075 3.90375 3.97 3.75375 4.0325 3.60375 3.9975 3.4325 3.88375 3.3175L2.28375 1.7175Z" transform="matrix(1 0 0 1.25 425 40)"/></g></g></g><g clip-path="url(#clip3)"><g clip-path="url(#clip4)"><g clip-path="url(#clip5)"><path d="M1.7175 4.6825C1.87375 4.83875 2.1275 4.83875 2.28375 4.6825L3.88375 3.0825C3.99875 2.9675 4.0325 2.79625 3.97 2.64625 3.9075 2.49625 3.7625 2.39875 3.6 2.39875L0.4 2.4C0.23875 2.4 0.0925 2.4975 0.03 2.6475-0.0325 2.7975 0.0025 2.96875 0.11625 3.08375L1.71625 4.68375Z" transform="matrix(1 0 0 1.25 425 52)"/></g></g></g></g></svg>